<?xml version="1.0" encoding="UTF-8"?>
<svg id="Capa_2" data-name="Capa 2" xmlns="http://www.w3.org/2000/svg" viewBox="0 0 41.89 38.86">
  <g id="Capa_1-2" data-name="Capa 1">
    <g>
      <path d="M17.56,23.51h0s-1.83-.61-1.83-.61l-2.07-.69,2.32-.35.19-.82h0s3.06-13.1,3.06-13.1l-13.78.69C.03,14.79-2.62,22.71,3.6,25.83c8.3,4.16,12.58,11.72,19.15,12.94l7.56-11-12.75-4.27Z"/>
      <path d="M40.88,13.46C37.47,3.17,26.35-2.41,16.05,1c-2.41.8-4.9,2.32-7.19,4.24,4.37-1.69,9.09-1.65,13.3-.13l-4.03,16.43,16.1,5.19c-.38,1.82-1.02,3.58-1.9,5.22-.59,1.09-1.29,2.13-2.1,3.1-.81.97-1.72,1.86-2.73,2.67-.51.4-1.04.78-1.59,1.14.8-.1,1.63-.28,2.51-.57,10.3-3.42,15.87-14.53,12.46-24.83ZM33.34,16.06c.11.27.2.55.29.82.04.12.08.23.12.35.08.26.16.52.23.78.04.14.07.27.1.41.06.25.12.5.18.76.07.35.13.71.18,1.07.03.18.04.37.06.55.03.24.05.48.07.71.01.17.02.34.03.51.01.27.02.54.02.8,0,.14,0,.28,0,.42,0,.41-.02.82-.06,1.23l-4.33-7.76-2.41-.57-1.87-.38,3.18-.91-.54-1.05-4.33-7.77c.41.21.8.43,1.2.66s.77.48,1.15.75c.75.53,1.46,1.11,2.14,1.75,1.35,1.28,2.53,2.78,3.48,4.49.1.19.19.38.29.57l1.31.31,2.49.5-2.93.84-.05.15s0,0,0,0Z"/>
    </g>
  </g>
</svg>