<?xml version="1.0" encoding="UTF-8"?>
<svg id="Capa_2" data-name="Capa 2" xmlns="http://www.w3.org/2000/svg" viewBox="0 0 89.1 89.11">
  <defs>
    <style>
      .cls-1 {
        fill: #fff;
      }

      .cls-2 {
        fill: #1d3557;
      }

      .cls-3 {
        fill: #e63a48;
      }

      .cls-4 {
        fill: #a9d9db;
      }

      .cls-5 {
        fill: #477c9e;
      }
    </style>
  </defs>
  <g id="Capa_1-2" data-name="Capa 1">
    <g>
      <path class="cls-5" d="M89.1,44.33c-.12-24.46-20.06-44.33-44.55-44.33S.12,19.86,0,44.33l.38,5.98c2.83,21.86,21.55,38.81,44.17,38.81s41.34-16.95,44.17-38.81l.38-5.98Z"/>
      <g>
        <path class="cls-2" d="M40.06,49.09h0s-2.19-.74-2.19-.74l-2.48-.83,2.78-.42.23-.99h0s3.68-15.69,3.68-15.69l-16.51.81c-6.49,7.4-9.68,16.89-2.23,20.63,9.94,5,15.06,14.05,22.93,15.53l9.07-13.16-15.27-5.13Z"/>
        <path class="cls-2" d="M38.28,22.12c-2.89.95-5.88,2.78-8.61,5.08,5.24-2.02,10.9-1.97,15.93-.14l-4.84,19.68,19.28,6.23c-1.21,5.81-4.66,11.12-9.98,14.51.96-.12,1.95-.33,3.01-.68,12.34-4.08,19.03-17.39,14.95-29.73s-17.39-19.03-29.73-14.95ZM60.43,50.26l-5.18-9.3-2.88-.69-2.24-.45,3.82-1.08-.65-1.26-5.18-9.32c3.89,1.97,7.25,5.09,9.53,9.18,2.28,4.09,3.16,8.59,2.79,12.93Z"/>
        <path class="cls-5" d="M60.03,52.98l-19.28-6.23,4.84-19.68c-5.04-1.84-10.69-1.89-15.93.14-1.46,1.22-2.84,2.58-4.11,4.02l16.51-.81-3.68,15.69h0s-.23.99-.23.99l-2.78.42,2.48.83,2.19.74h0s15.27,5.13,15.27,5.13l-9.07,13.16c1.19.22,2.45.27,3.79.11,5.32-3.4,8.78-8.71,9.98-14.51Z"/>
        <path class="cls-3" d="M48.16,28.24l5.14,9.24.64,1.25-3.78,1.08,2.22.45,2.86.68,5.14,9.22c.36-4.31-.51-8.76-2.77-12.82-2.26-4.06-5.59-7.15-9.45-9.1Z"/>
        <polygon class="cls-3" points="58.29 42.09 58.99 39.99 62.47 38.99 59.52 38.39 55.72 37.49 58.29 42.09"/>
      </g>
      <g>
        <polygon class="cls-4" points="81.86 43.14 80.3 43.77 78.03 42.24 79.13 44.24 80.45 46.88 81.86 43.14"/>
        <polygon class="cls-4" points="11.17 45.97 9.62 45.35 7.34 46.88 8.44 44.88 9.77 42.24 11.17 45.97"/>
      </g>
      <g>
        <path class="cls-1" d="M81.76,54.64l-.78,2.26c-.64,1.84-1.86,2.36-3.35,1.85-1-.34-1.57-.98-1.51-2.01h-.02c-.51.82-1.44,1.3-2.83.82-2.1-.73-2.1-2.27-1.61-3.68l.84-2.43,9.26,3.2ZM73.11,54.2c-.21.59-.06,1.16.93,1.5.94.32,1.52.07,1.76-.63l.16-.45-2.67-.92-.17.5ZM77.2,55.55c-.23.66.18,1.1.95,1.36.78.27,1.27.01,1.47-.56l.14-.42-2.41-.83-.15.44Z"/>
        <path class="cls-1" d="M74.79,59.44c2.99,1.83,3.86,3.39,2.68,5.32-1.14,1.86-2.9,1.71-5.87-.1-3.12-1.91-3.85-3.4-2.71-5.25,1.17-1.92,2.78-1.87,5.91.04ZM72.63,62.97c2.17,1.33,3.14,1.68,3.58.96.45-.74-.29-1.46-2.46-2.79-2.26-1.38-3.16-1.67-3.6-.94-.45.73.22,1.39,2.48,2.77Z"/>
        <path class="cls-1" d="M70.72,65.76c2.52,2.43,3,4.18,1.44,5.8-1.24,1.28-2.55,1.16-4.15-.38l-.33-.32,1.2-1.25.32.31c.86.83,1.45,1.07,1.89.6.66-.69.02-1.62-1.75-3.32-1.85-1.78-2.73-2.3-3.37-1.64-.41.43-.36.91.69,1.92l.43.41-1.2,1.25-.43-.41c-1.74-1.67-1.73-3.01-.52-4.26,1.52-1.57,3.16-1.21,5.77,1.3Z"/>
        <path class="cls-1" d="M65.65,70.81c1.96,2.91,2.06,4.72.19,5.97-1.48,1-2.73.6-3.97-1.25l-.26-.39,1.44-.97.25.36c.67.99,1.19,1.35,1.73.99.79-.53.36-1.58-1.01-3.62-1.43-2.12-2.19-2.82-2.95-2.31-.49.33-.54.82.27,2.03l.33.49-1.44.97-.33-.49c-1.35-2-1.06-3.3.39-4.27,1.81-1.22,3.34-.52,5.37,2.49Z"/>
        <path class="cls-1" d="M61.56,79.08l-1.71.79-4.13-8.89,1.71-.79,4.13,8.89Z"/>
        <path class="cls-1" d="M51.98,74.87l1.8-.5-.26-2.53,1.92-.53.58,10.01-2.43.68-4.61-8.89,1.91-.53,1.08,2.31ZM52.69,76.45l1.68,3.63h.01s-.41-3.98-.41-3.98l-1.28.36Z"/>
        <path class="cls-1" d="M49.1,77.91c.22,3.5-.35,5.1-2.28,5.22-1.39.09-2.19-.73-2.33-2.93l-.03-.46.85-.05.03.44c.11,1.69.57,2.28,1.44,2.22,1.35-.09,1.59-1.47,1.41-4.37-.19-3-.62-4.24-1.98-4.15-.87.05-1.23.63-1.12,2.35l.04.55-.85.05-.04-.55c-.14-2.19.53-3.1,1.95-3.2,1.92-.12,2.69,1.26,2.92,4.88Z"/>
        <path class="cls-1" d="M42.47,78.16c-.47,3.47-1.36,4.92-3.2,4.67-1.84-.25-2.21-1.98-1.75-5.35.5-3.7,1.37-4.92,3.16-4.68,1.84.25,2.3,1.65,1.79,5.35ZM38.42,77.61c-.39,2.87-.28,4.25.99,4.42s1.75-1.12,2.14-3.99c.41-2.97.28-4.28-.99-4.46s-1.74,1.06-2.15,4.03Z"/>
        <path class="cls-1" d="M33.24,74.58l2.02.69,1.71-3,.86.29-5.13,8.61-1.03-.35,1.18-9.95.84.29-.45,3.43ZM33.13,75.34l-.63,4.78h.01s2.38-4.18,2.38-4.18l-1.76-.6Z"/>
        <path class="cls-1" d="M30.11,74.96c-1.73,3.05-3.09,4.07-4.77,3.11-1.21-.69-1.43-1.81-.34-3.73l.23-.4.74.42-.22.38c-.84,1.47-.77,2.22-.02,2.65,1.18.67,2.14-.36,3.57-2.88,1.48-2.61,1.8-3.89.62-4.56-.75-.43-1.38-.15-2.23,1.35l-.27.48-.74-.42.27-.48c1.08-1.91,2.15-2.31,3.38-1.61,1.67.95,1.55,2.53-.24,5.68Z"/>
        <path class="cls-1" d="M21.06,75.08l-.67-.57,2.87-3.33-1.89-1.63-2.87,3.33-.67-.57,6.4-7.41.66.57-2.99,3.47,1.89,1.63,2.99-3.47.66.57-6.4,7.42Z"/>
        <path class="cls-1" d="M15.88,70.19l-.58-.66,7.38-6.45.58.66-7.37,6.45Z"/>
        <path class="cls-1" d="M13.39,67.22l-.61-.95,5.29-6.73v-.02s-6.82,4.34-6.82,4.34l-.44-.7,8.26-5.26.55.87-5.43,6.95v.02s7.03-4.47,7.03-4.47l.45.7-8.26,5.26Z"/>
        <path class="cls-1" d="M13.96,58.59c-3.28,1.23-4.98,1.14-5.66-.67-.49-1.31.06-2.3,2.13-3.08l.2-.08.3.8-.18.07c-1.59.59-2.02,1.21-1.71,2.02.48,1.27,1.87,1.1,4.59.08,2.81-1.05,3.89-1.83,3.43-3.06-.32-.86-1.04-1.02-2.45-.49l-1.31.49.59,1.58-.78.29-.89-2.38,4.65-1.74.22.58-.68.41c.73.06,1.2.5,1.42,1.09.61,1.62-.48,2.81-3.88,4.08Z"/>
      </g>
      <g>
        <path class="cls-1" d="M7.34,34.47l.78-2.26c.64-1.84,1.86-2.36,3.35-1.85,1,.34,1.57.98,1.51,2.01h.02c.51-.82,1.44-1.3,2.83-.82,2.1.73,2.1,2.27,1.61,3.68l-.84,2.43-9.26-3.2ZM11.91,33.57c.23-.66-.18-1.1-.95-1.36-.78-.27-1.27-.01-1.47.56l-.14.42,2.41.83.15-.44ZM16,34.91c.21-.59.06-1.16-.93-1.5-.94-.32-1.52-.07-1.76.63l-.16.45,2.67.92.17-.5Z"/>
        <path class="cls-1" d="M14.31,29.67c-2.99-1.83-3.86-3.39-2.68-5.32,1.14-1.86,2.9-1.71,5.87.1,3.12,1.91,3.85,3.4,2.71,5.25-1.17,1.92-2.78,1.87-5.91-.04ZM16.47,26.15c-2.17-1.33-3.14-1.68-3.58-.96-.45.74.29,1.46,2.46,2.79,2.26,1.38,3.16,1.67,3.6.94.45-.73-.22-1.39-2.48-2.77Z"/>
        <path class="cls-1" d="M18.38,23.35c-2.52-2.43-3-4.18-1.44-5.8,1.24-1.28,2.55-1.16,4.15.38l.33.32-1.2,1.25-.32-.31c-.86-.83-1.45-1.07-1.89-.6-.66.69-.02,1.62,1.75,3.32,1.85,1.78,2.73,2.3,3.37,1.64.41-.43.36-.91-.69-1.92l-.43-.41,1.2-1.25.43.41c1.74,1.67,1.73,3.01.52,4.26-1.52,1.57-3.16,1.21-5.77-1.3Z"/>
        <path class="cls-1" d="M23.45,18.3c-1.96-2.91-2.06-4.72-.19-5.97,1.48-1,2.73-.6,3.97,1.25l.26.39-1.44.97-.25-.36c-.67-.99-1.19-1.35-1.73-.99-.79.53-.36,1.58,1.01,3.62,1.43,2.12,2.19,2.82,2.95,2.31.49-.33.54-.82-.27-2.03l-.33-.49,1.44-.97.33.49c1.35,2,1.06,3.3-.39,4.27-1.81,1.22-3.34.52-5.37-2.49Z"/>
        <path class="cls-1" d="M27.54,10.03l1.71-.79,4.13,8.89-1.71.79-4.13-8.89Z"/>
        <path class="cls-1" d="M37.13,14.25l-1.8.5.26,2.53-1.92.53-.58-10.01,2.43-.68,4.61,8.89-1.91.53-1.08-2.31ZM36.41,12.66l-1.68-3.63h-.01s.41,3.98.41,3.98l1.28-.36Z"/>
        <path class="cls-1" d="M40.01,11.2c-.22-3.5.35-5.1,2.28-5.22,1.39-.09,2.19.73,2.33,2.93l.03.46-.85.05-.03-.44c-.11-1.69-.57-2.28-1.44-2.22-1.35.09-1.59,1.47-1.41,4.37.19,3,.62,4.24,1.98,4.15.87-.05,1.23-.63,1.12-2.35l-.04-.55.85-.05.04.55c.14,2.19-.53,3.1-1.95,3.2-1.92.12-2.69-1.26-2.92-4.88Z"/>
        <path class="cls-1" d="M46.64,10.95c.47-3.47,1.36-4.92,3.2-4.67,1.84.25,2.21,1.98,1.75,5.35-.5,3.7-1.37,4.92-3.16,4.68-1.84-.25-2.3-1.65-1.79-5.35ZM50.68,11.5c.39-2.87.28-4.25-.99-4.42s-1.75,1.12-2.14,3.99c-.41,2.97-.28,4.28.99,4.46s1.74-1.06,2.15-4.03Z"/>
        <path class="cls-1" d="M55.86,14.53l-2.02-.69-1.71,3-.86-.29,5.13-8.61,1.03.35-1.18,9.95-.84-.29.45-3.43ZM55.97,13.77l.63-4.78h-.01s-2.38,4.18-2.38,4.18l1.76.6Z"/>
        <path class="cls-1" d="M58.99,14.16c1.73-3.05,3.09-4.07,4.77-3.11,1.21.69,1.43,1.81.34,3.73l-.23.4-.74-.42.22-.38c.84-1.47.77-2.22.02-2.65-1.18-.67-2.14.36-3.57,2.88-1.48,2.61-1.8,3.89-.62,4.56.75.43,1.38.15,2.23-1.35l.27-.48.74.42-.27.48c-1.08,1.91-2.15,2.31-3.38,1.61-1.67-.95-1.55-2.53.24-5.68Z"/>
        <path class="cls-1" d="M68.05,14.04l.67.57-2.87,3.33,1.89,1.63,2.87-3.33.67.57-6.4,7.41-.66-.57,2.99-3.47-1.89-1.63-2.99,3.47-.66-.57,6.4-7.42Z"/>
        <path class="cls-1" d="M73.22,18.93l.58.66-7.38,6.45-.58-.66,7.37-6.45Z"/>
        <path class="cls-1" d="M75.72,21.9l.61.95-5.29,6.73v.02s6.82-4.34,6.82-4.34l.44.7-8.26,5.26-.55-.87,5.43-6.95v-.02s-7.03,4.47-7.03,4.47l-.45-.7,8.26-5.26Z"/>
        <path class="cls-1" d="M75.14,30.52c3.28-1.23,4.98-1.14,5.66.67.49,1.31-.06,2.3-2.13,3.08l-.2.08-.3-.8.18-.07c1.59-.59,2.02-1.21,1.71-2.02-.48-1.27-1.87-1.1-4.59-.08-2.81,1.05-3.89,1.83-3.43,3.06.32.86,1.04,1.02,2.45.49l1.31-.49-.59-1.58.78-.29.89,2.38-4.65,1.74-.22-.58.68-.41c-.73-.06-1.2-.5-1.42-1.09-.61-1.62.48-2.81,3.88-4.08Z"/>
      </g>
    </g>
  </g>
</svg>