<?xml version="1.0" encoding="UTF-8"?>
<svg id="Capa_2" data-name="Capa 2" xmlns="http://www.w3.org/2000/svg" viewBox="0 0 153.03 210.5">
  <defs>
    <style>
      .cls-1 {
        fill: none;
      }

      .cls-2 {
        fill: #1d3557;
      }

      .cls-3 {
        fill: #616160;
      }
    </style>
  </defs>
  <g id="Capa_1-2" data-name="Capa 1">
    <g>
      <g>
        <path class="cls-2" d="M65.26,66.31h0s-5.17-1.73-5.17-1.73l-5.85-1.96,6.54-1,.54-2.32h0s8.62-36.96,8.62-36.96l-38.86,1.93c-15.27,17.44-22.75,39.79-5.21,48.59,23.4,11.74,35.5,33.06,54.03,36.51l21.32-31.02-35.96-12.05Z"/>
        <path class="cls-2" d="M131.05,37.97C121.41,8.93,90.06-6.8,61.02,2.83c-6.8,2.25-13.83,6.55-20.27,11.97,12.34-4.77,25.65-4.67,37.51-.35l-11.36,46.34,45.41,14.64c-2.82,13.68-10.96,26.18-23.48,34.2,2.25-.28,4.6-.79,7.09-1.62,29.04-9.63,44.78-40.99,35.14-70.03ZM109.91,44.86l-.14.41c3.02,7.73,4.12,15.85,3.46,23.77l-12.22-21.89-6.79-1.62-5.28-1.07,8.98-2.57-1.52-2.97-12.22-21.92c9.16,4.64,17.08,11.96,22.46,21.6.3.53.58,1.07.86,1.61l3.66.87,7.02,1.42-8.26,2.36Z"/>
      </g>
      <g>
        <path class="cls-1" d="M40.24,130.44c-3.7,0-4.67,4.29-4.67,15.18s.97,15.24,4.61,15.24,4.56-3.92,4.56-15.24-.86-15.18-4.51-15.18Z"/>
        <path class="cls-1" d="M30.16,176.49c-4.68,0-5.78,4.91-5.78,15.51s1.1,15.65,5.78,15.65,5.78-4.68,5.78-15.65-1.1-15.51-5.78-15.51Z"/>
        <polygon class="cls-1" points="50.4 177.5 47.09 194.76 53.89 194.76 50.44 177.5 50.4 177.5"/>
        <polygon class="cls-1" points="138.81 131.62 138.76 131.62 135.91 148.47 141.6 148.47 138.81 131.62"/>
        <path class="cls-2" d="M24.3,154.91c0-6.28-3.22-9.34-7.3-10.25v-.11c4.24-1.18,6.01-4.4,6.01-8.91,0-6.71-3.81-10.94-12.13-10.94H.7v41.85h11c6.38,0,12.61-2.15,12.61-11.64ZM8.76,130.98h0s1.86,0,1.86,0c2.57,0,4.29,1.61,4.29,5.15s-1.18,5.74-4.18,5.74h-1.99v-7.12l-1.57-1.18-4.93-3.7,6.52,1.11ZM8.74,160.27v-8.3l-1.57-1.18-4.93-3.7,6.52,1.11h0s2.03,0,2.03,0c3.17,0,4.99,1.99,4.99,6.22,0,4.45-2.09,5.85-4.78,5.85h-2.25Z"/>
        <path class="cls-2" d="M53.22,145.63c0-14.86-3.38-21.62-12.72-21.62s-13.41,6.65-13.41,21.62,3.43,21.62,13.04,21.62,13.09-6.01,13.09-21.62ZM40.19,160.86c-3.65,0-4.61-3.92-4.61-15.24s.97-15.18,4.67-15.18,4.51,4.29,4.51,15.18-.91,15.24-4.56,15.24Z"/>
        <path class="cls-2" d="M70.02,124.01c-9.6,0-13.57,6.65-13.57,21.62s3.76,21.62,13.09,21.62c7.46,0,11.59-3.92,11.59-14.22v-2.52h-7.4v2.52c0,6.22-1.34,7.83-3.86,7.83-3.92,0-4.94-4.29-4.94-15.24s.97-15.24,5.04-15.24c2.74,0,3.76,2.52,3.76,7.62v1.88h7.4v-1.99c0-9.5-3.49-13.89-11.11-13.89Z"/>
        <path class="cls-2" d="M97.92,124.01c-9.6,0-13.57,6.65-13.57,21.62s3.76,21.62,13.09,21.62c7.46,0,11.59-3.92,11.59-14.22v-2.52h-7.4v2.52c0,6.22-1.34,7.83-3.86,7.83-3.92,0-4.94-4.29-4.94-15.24s.97-15.24,5.04-15.24c2.74,0,3.76,2.52,3.76,7.62v1.88h7.4v-1.99c0-9.5-3.49-13.89-11.11-13.89Z"/>
        <rect class="cls-2" x="113.32" y="124.7" width="8.05" height="41.85"/>
        <path class="cls-2" d="M133.16,158.41l-4.93-3.7,6.5,1.11h7.99l1.82,10.73h8.48l-8.8-41.85h-10.78l-9.07,41.85h8.53l1.26-7.39-1-.75ZM138.76,131.62h.05l2.79,16.85h-5.69l2.84-16.85Z"/>
        <path class="cls-2" d="M9.55,173.51c-7.07,0-9.55,5.69-9.55,18.5s2.48,18.5,9.5,18.5c5.19,0,7.85-3.17,7.85-11.2v-2.02h-3.12v2.02c0,6.29-1.47,8.31-4.64,8.31-4.96,0-6.24-4.64-6.24-15.61s1.19-15.61,6.15-15.61c3.17,0,4.73,2.25,4.73,8.45v1.61h3.12v-1.7c0-8.08-2.71-11.25-7.8-11.25Z"/>
        <path class="cls-2" d="M30.29,173.51c-6.79,0-9.27,5.69-9.27,18.5,0,13.68,2.34,18.5,9.13,18.5s9.13-4.86,9.13-18.5c0-12.44-2.2-18.5-9-18.5ZM30.16,207.66c-4.68,0-5.78-4.68-5.78-15.65s1.1-15.51,5.78-15.51,5.78,4.91,5.78,15.51-1.1,15.65-5.78,15.65Z"/>
        <path class="cls-2" d="M48.52,174.1l-7.62,35.8h3.3l2.39-12.39h7.8l2.48,12.39h3.26l-7.62-35.8h-3.99ZM47.09,194.76l3.3-17.26h.05l3.44,17.26h-6.79Z"/>
        <path class="cls-2" d="M71.28,173.51c-7.07,0-9.55,5.69-9.55,18.5s2.48,18.5,9.5,18.5c5.19,0,7.85-3.17,7.85-11.2v-2.02h-3.12v2.02c0,6.29-1.47,8.31-4.64,8.31-4.96,0-6.24-4.64-6.24-15.61s1.19-15.61,6.15-15.61c3.17,0,4.73,2.25,4.73,8.45v1.61h3.12v-1.7c0-8.08-2.71-11.25-7.8-11.25Z"/>
        <polygon class="cls-2" points="96.02 190.17 86.89 190.17 86.89 174.1 83.67 174.1 83.67 209.91 86.89 209.91 86.89 193.15 96.02 193.15 96.02 209.91 99.24 209.91 99.24 174.1 96.02 174.1 96.02 190.17"/>
        <rect class="cls-2" x="104.74" y="174.1" width="3.21" height="35.8"/>
        <polygon class="cls-2" points="128.06 203.62 127.97 203.62 117.59 174.1 113.46 174.1 113.46 209.91 116.49 209.91 116.49 179.52 116.58 179.52 127.32 209.91 131.09 209.91 131.09 174.1 128.06 174.1 128.06 203.62"/>
        <path class="cls-2" d="M145.23,173.51c-7.07,0-9.55,5.69-9.55,18.5s2.66,18.5,9,18.5c2.3,0,4.41-1.01,5.55-3.44l.55,2.85h2.25v-18.13h-9.27v3.03h6.15v5.09c0,5.51-1.47,7.76-4.82,7.76-4.77,0-6.06-4.68-6.06-15.65s1.19-15.61,6.15-15.61c3.17,0,4.73,2.25,4.73,8.45v.69h3.12v-.78c0-8.08-2.71-11.25-7.8-11.25Z"/>
        <polygon class="cls-3" points="134.17 159.16 137.52 161.68 137.52 161.68 134.75 155.82 134.73 155.82 134.73 155.82 134.17 159.16"/>
        <polygon class="cls-3" points="133.16 158.41 134.17 159.16 134.73 155.82 134.73 155.82 128.23 154.71 133.16 158.41"/>
      </g>
    </g>
  </g>
</svg>