<?xml version="1.0" encoding="UTF-8"?>
<svg id="Capa_2" data-name="Capa 2" xmlns="http://www.w3.org/2000/svg" viewBox="0 0 241.33 82.97">
  <defs>
    <style>
      .cls-1 {
        fill: none;
      }

      .cls-2 {
        fill: #1d3557;
      }

      .cls-3 {
        fill: #e63a48;
      }

      .cls-4 {
        fill: #477c9e;
      }
    </style>
  </defs>
  <g id="Capa_1-2" data-name="Capa 1">
    <g>
      <g>
        <path class="cls-2" d="M37.41,50.09h0s-3.9-1.31-3.9-1.31l-4.42-1.48,4.94-.76.41-1.75h0s6.5-27.91,6.5-27.91l-29.35,1.47C.06,31.53-5.58,48.41,7.67,55.05c17.68,8.86,26.82,24.96,40.82,27.56l16.09-23.43-27.17-9.09Z"/>
        <path class="cls-2" d="M34.19,2.14c-5.13,1.7-10.44,4.95-15.31,9.05,9.32-3.61,19.37-3.53,28.33-.28l-8.57,35.01,34.3,11.04c-2.13,10.33-8.27,19.78-17.72,25.83,1.7-.21,3.47-.6,5.35-1.22,21.93-7.28,33.81-30.97,26.52-52.9S56.12-5.14,34.19,2.14ZM73.65,52.13l-9.24-16.53-5.13-1.22-3.99-.8,6.78-1.94-1.15-2.24-9.24-16.56c6.92,3.5,12.9,9.03,16.97,16.31,4.06,7.27,5.64,15.26,5,22.99Z"/>
        <path class="cls-3" d="M51.68,12.84l9.24,16.56,1.15,2.24-6.78,1.94,3.99.8,5.13,1.22,9.24,16.53c.64-7.72-.93-15.71-5-22.99-4.07-7.28-10.05-12.8-16.97-16.31Z"/>
        <polygon class="cls-3" points="69.89 37.64 71.13 33.87 77.37 32.08 72.07 31.02 65.25 29.4 69.89 37.64"/>
        <path class="cls-4" d="M72.94,56.96l-34.3-11.04,8.57-35.01c-8.96-3.25-19.01-3.33-28.33.28-2.59,2.18-5.05,4.6-7.29,7.16l29.35-1.47-6.5,27.91h0s-.41,1.76-.41,1.76l-4.94.76,4.42,1.48,3.9,1.31h0s27.17,9.09,27.17,9.09l-16.09,23.43c2.12.39,4.35.48,6.74.18,9.45-6.06,15.59-15.5,17.72-25.83Z"/>
      </g>
      <g>
        <path class="cls-1" d="M117.58,31.44c0-3.82-1.64-5.61-4.5-5.61h-1.83s-5.88-1-5.88-1l4.45,3.34,1.42,1.07v7.48h2.03c2.42,0,4.31-1.26,4.31-5.27Z"/>
        <path class="cls-1" d="M111.25,13.7v6.42h1.79c2.71,0,3.77-2.03,3.77-5.18s-1.55-4.64-3.87-4.64h-1.68s-5.88-1-5.88-1l4.45,3.34,1.42,1.07Z"/>
        <polygon class="cls-1" points="148.8 52.24 145.82 67.8 151.94 67.8 148.84 52.24 148.8 52.24"/>
        <path class="cls-1" d="M130.55,51.33c-4.22,0-5.21,4.43-5.21,13.99s.99,14.11,5.21,14.11,5.21-4.22,5.21-14.11-.99-13.99-5.21-13.99Z"/>
        <path class="cls-2" d="M125.27,31.87c0-5.66-2.9-8.42-6.58-9.24v-.1c3.82-1.06,5.42-3.97,5.42-8.03,0-6.05-3.43-9.87-10.93-9.87h-9.19v37.73h9.92c5.76,0,11.37-1.94,11.37-10.5ZM111.26,10.29h0s1.68,0,1.68,0c2.32,0,3.87,1.45,3.87,4.64s-1.06,5.18-3.77,5.18h-1.79v-6.42l-1.42-1.07-4.45-3.34,5.88,1ZM111.25,36.71v-7.48l-1.42-1.07-4.45-3.34,5.88,1h0s1.83,0,1.83,0c2.85,0,4.5,1.79,4.5,5.61,0,4.01-1.89,5.27-4.31,5.27h-2.03Z"/>
        <path class="cls-1" d="M139.64,9.81c-3.34,0-4.21,3.87-4.21,13.69s.87,13.74,4.16,13.74,4.11-3.53,4.11-13.74-.77-13.69-4.06-13.69Z"/>
        <path class="cls-2" d="M151.35,23.5c0-13.4-3.05-19.49-11.46-19.49s-12.09,6-12.09,19.49,3.1,19.49,11.75,19.49,11.8-5.42,11.8-19.49ZM139.59,37.24c-3.29,0-4.16-3.53-4.16-13.74s.87-13.69,4.21-13.69,4.06,3.87,4.06,13.69-.82,13.74-4.11,13.74Z"/>
        <path class="cls-2" d="M166.49,4.01c-8.66,0-12.24,6-12.24,19.49s3.39,19.49,11.8,19.49c6.72,0,10.45-3.53,10.45-12.82v-2.27h-6.68v2.27c0,5.61-1.21,7.06-3.48,7.06-3.53,0-4.45-3.87-4.45-13.74s.87-13.74,4.55-13.74c2.47,0,3.39,2.27,3.39,6.87v1.69h6.68v-1.79c0-8.56-3.14-12.53-10.01-12.53Z"/>
        <path class="cls-2" d="M191.65,4.01c-8.66,0-12.24,6-12.24,19.49s3.39,19.49,11.8,19.49c6.72,0,10.45-3.53,10.45-12.82v-2.27h-6.68v2.27c0,5.61-1.21,7.06-3.48,7.06-3.53,0-4.45-3.87-4.45-13.74s.87-13.74,4.55-13.74c2.47,0,3.39,2.27,3.39,6.87v1.69h6.68v-1.79c0-8.56-3.14-12.53-10.01-12.53Z"/>
        <rect class="cls-2" x="205.53" y="4.64" width="7.26" height="37.73"/>
        <polygon class="cls-1" points="228.51 10.88 228.46 10.88 225.9 26.07 231.03 26.07 228.51 10.88"/>
        <path class="cls-2" d="M232.04,32.69l1.64,9.67h7.64l-7.93-37.73h-9.72l-8.18,37.73h7.69l1.13-6.66-.9-.68-4.45-3.34,5.86,1h7.21ZM228.46,10.88h.05l2.52,15.19h-5.13l2.56-15.19Z"/>
        <path class="cls-2" d="M111.97,48.64c-6.37,0-8.61,5.13-8.61,16.68s2.23,16.68,8.57,16.68c4.68,0,7.08-2.85,7.08-10.1v-1.82h-2.81v1.82c0,5.67-1.32,7.49-4.18,7.49-4.47,0-5.63-4.18-5.63-14.07s1.08-14.07,5.55-14.07c2.86,0,4.26,2.03,4.26,7.61v1.45h2.81v-1.53c0-7.28-2.44-10.14-7.04-10.14Z"/>
        <path class="cls-2" d="M130.67,48.64c-6.13,0-8.36,5.13-8.36,16.68,0,12.33,2.11,16.68,8.24,16.68s8.24-4.39,8.24-16.68c0-11.21-1.99-16.68-8.11-16.68ZM130.55,79.43c-4.22,0-5.21-4.22-5.21-14.11s.99-13.99,5.21-13.99,5.21,4.43,5.21,13.99-.99,14.11-5.21,14.11Z"/>
        <path class="cls-2" d="M147.1,49.18l-6.87,32.28h2.98l2.15-11.17h7.03l2.23,11.17h2.94l-6.87-32.28h-3.6ZM145.82,67.8l2.98-15.56h.04l3.1,15.56h-6.12Z"/>
        <path class="cls-2" d="M167.63,48.64c-6.37,0-8.61,5.13-8.61,16.68s2.23,16.68,8.57,16.68c4.68,0,7.08-2.85,7.08-10.1v-1.82h-2.81v1.82c0,5.67-1.32,7.49-4.18,7.49-4.47,0-5.63-4.18-5.63-14.07s1.08-14.07,5.54-14.07c2.86,0,4.26,2.03,4.26,7.61v1.45h2.81v-1.53c0-7.28-2.44-10.14-7.04-10.14Z"/>
        <polygon class="cls-2" points="189.93 63.66 181.7 63.66 181.7 49.18 178.8 49.18 178.8 81.46 181.7 81.46 181.7 66.35 189.93 66.35 189.93 81.46 192.83 81.46 192.83 49.18 189.93 49.18 189.93 63.66"/>
        <rect class="cls-2" x="197.8" y="49.18" width="2.9" height="32.28"/>
        <polygon class="cls-2" points="218.82 75.79 218.73 75.79 209.38 49.18 205.66 49.18 205.66 81.46 208.39 81.46 208.39 54.06 208.47 54.06 218.16 81.46 221.55 81.46 221.55 49.18 218.82 49.18 218.82 75.79"/>
        <path class="cls-2" d="M234.29,48.64c-6.37,0-8.61,5.13-8.61,16.68s2.4,16.68,8.11,16.68c2.07,0,3.97-.91,5.01-3.1l.5,2.57h2.03v-16.35h-8.36v2.73h5.55v4.59c0,4.97-1.32,6.99-4.35,6.99-4.3,0-5.46-4.22-5.46-14.11s1.07-14.07,5.55-14.07c2.85,0,4.26,2.03,4.26,7.61v.62h2.81v-.7c0-7.28-2.44-10.14-7.03-10.14Z"/>
      </g>
    </g>
  </g>
</svg>