<?xml version="1.0" encoding="UTF-8"?>
<svg id="Capa_2" data-name="Capa 2" xmlns="http://www.w3.org/2000/svg" viewBox="0 0 301.51 39.13">
  <defs>
    <style>
      .cls-1 {
        fill: none;
      }

      .cls-2 {
        fill: #1d3557;
      }
    </style>
  </defs>
  <g id="Capa_1-2" data-name="Capa 1">
    <g>
      <polygon class="cls-1" points="124.47 6.87 121.91 22.06 127.04 22.06 124.52 6.87 124.47 6.87"/>
      <path class="cls-1" d="M172.03,3.29c-4.93,0-6.09,5.18-6.09,16.35s1.16,16.49,6.09,16.49,6.09-4.93,6.09-16.49-1.16-16.35-6.09-16.35Z"/>
      <polygon class="cls-1" points="193.36 4.35 189.88 22.54 197.04 22.54 193.41 4.35 193.36 4.35"/>
      <path class="cls-1" d="M35.65,5.8c-3.34,0-4.21,3.87-4.21,13.69s.87,13.74,4.16,13.74,4.11-3.53,4.11-13.74-.77-13.69-4.06-13.69Z"/>
      <path class="cls-2" d="M14.71,18.62v-.1c3.82-1.06,5.42-3.97,5.42-8.03,0-6.05-3.43-9.87-10.93-9.87H0v37.73h9.92c5.76,0,11.37-1.94,11.37-10.5,0-5.66-2.9-8.42-6.58-9.24ZM7.27,6.28h0s1.68,0,1.68,0c2.32,0,3.87,1.45,3.87,4.64s-1.06,5.18-3.77,5.18h-1.79v-6.42l-1.42-1.07L1.39,5.28l5.88,1ZM9.29,32.7h-2.03v-7.48l-1.42-1.07-4.45-3.34,5.88,1h0s1.83,0,1.83,0c2.85,0,4.5,1.79,4.5,5.61,0,4.01-1.89,5.27-4.31,5.27Z"/>
      <path class="cls-2" d="M35.89,0c-8.71,0-12.09,6-12.09,19.49s3.1,19.49,11.75,19.49,11.8-5.42,11.8-19.49S44.31,0,35.89,0ZM35.6,33.23c-3.29,0-4.16-3.53-4.16-13.74s.87-13.69,4.21-13.69,4.06,3.87,4.06,13.69-.82,13.74-4.11,13.74Z"/>
      <path class="cls-2" d="M62.5,0c-8.66,0-12.24,6-12.24,19.49s3.39,19.49,11.8,19.49c6.72,0,10.45-3.53,10.45-12.82v-2.27h-6.68v2.27c0,5.61-1.21,7.06-3.48,7.06-3.53,0-4.45-3.87-4.45-13.74s.87-13.74,4.55-13.74c2.47,0,3.39,2.27,3.39,6.87v1.69h6.68v-1.79c0-8.56-3.14-12.53-10.01-12.53Z"/>
      <path class="cls-2" d="M87.66,0c-8.66,0-12.24,6-12.24,19.49s3.39,19.49,11.8,19.49c6.72,0,10.45-3.53,10.45-12.82v-2.27h-6.68v2.27c0,5.61-1.21,7.06-3.48,7.06-3.53,0-4.45-3.87-4.45-13.74s.87-13.74,4.55-13.74c2.47,0,3.39,2.27,3.39,6.87v1.69h6.68v-1.79c0-8.56-3.14-12.53-10.01-12.53Z"/>
      <rect class="cls-2" x="101.54" y=".63" width="7.26" height="37.73"/>
      <path class="cls-2" d="M119.69.63l-8.18,37.73h7.69l1.13-6.66-.9-.68-4.45-3.34,5.87,1h7.21l1.64,9.67h7.64L129.41.63h-9.72ZM121.91,22.06l2.56-15.19h.05l2.52,15.19h-5.13Z"/>
      <path class="cls-2" d="M150.32.15c-7.45,0-10.06,6-10.06,19.49s2.61,19.49,10.01,19.49c5.47,0,8.27-3.34,8.27-11.8v-2.13h-3.29v2.13c0,6.63-1.55,8.75-4.88,8.75-5.22,0-6.58-4.88-6.58-16.44s1.26-16.45,6.48-16.45c3.34,0,4.98,2.37,4.98,8.9v1.69h3.29v-1.79c0-8.51-2.85-11.85-8.22-11.85Z"/>
      <path class="cls-2" d="M172.18.15c-7.16,0-9.77,6-9.77,19.49,0,14.41,2.47,19.49,9.63,19.49s9.63-5.13,9.63-19.49c0-13.11-2.32-19.49-9.48-19.49ZM172.03,36.13c-4.93,0-6.09-4.93-6.09-16.49s1.16-16.35,6.09-16.35,6.09,5.18,6.09,16.35-1.16,16.49-6.09,16.49Z"/>
      <path class="cls-2" d="M191.38.78l-8.03,37.73h3.48l2.52-13.06h8.22l2.61,13.06h3.43L195.59.78h-4.21ZM189.88,22.54l3.48-18.19h.05l3.63,18.19h-7.16Z"/>
      <path class="cls-2" d="M215.37.15c-7.45,0-10.06,6-10.06,19.49s2.61,19.49,10.01,19.49c5.47,0,8.27-3.34,8.27-11.8v-2.13h-3.29v2.13c0,6.63-1.55,8.75-4.88,8.75-5.22,0-6.58-4.88-6.58-16.44s1.26-16.45,6.48-16.45c3.34,0,4.98,2.37,4.98,8.9v1.69h3.29v-1.79c0-8.51-2.85-11.85-8.22-11.85Z"/>
      <polygon class="cls-2" points="241.44 17.7 231.82 17.7 231.82 .78 228.43 .78 228.43 38.5 231.82 38.5 231.82 20.85 241.44 20.85 241.44 38.5 244.83 38.5 244.83 .78 241.44 .78 241.44 17.7"/>
      <rect class="cls-2" x="250.63" y=".78" width="3.39" height="37.73"/>
      <polygon class="cls-2" points="275.2 31.88 275.1 31.88 264.17 .78 259.82 .78 259.82 38.5 263.01 38.5 263.01 6.48 263.11 6.48 274.43 38.5 278.39 38.5 278.39 .78 275.2 .78 275.2 31.88"/>
      <path class="cls-2" d="M301.51,12.82v-.82c0-8.51-2.85-11.85-8.22-11.85-7.45,0-10.06,6-10.06,19.49s2.8,19.49,9.48,19.49c2.42,0,4.64-1.06,5.85-3.63l.58,3h2.37v-19.11h-9.77v3.19h6.48v5.37c0,5.8-1.55,8.17-5.08,8.17-5.03,0-6.38-4.93-6.38-16.49s1.26-16.45,6.48-16.45c3.34,0,4.98,2.37,4.98,8.9v.73h3.29Z"/>
    </g>
  </g>
</svg>