<?xml version="1.0" encoding="UTF-8"?>
<svg id="Capa_2" data-name="Capa 2" xmlns="http://www.w3.org/2000/svg" viewBox="0 0 137.97 77.98">
  <defs>
    <style>
      .cls-1 {
        fill: none;
      }

      .cls-2 {
        fill: #1d3557;
      }
    </style>
  </defs>
  <g id="Capa_1-2" data-name="Capa 1">
    <g>
      <path class="cls-1" d="M14.22,27.43c0-3.82-1.64-5.61-4.5-5.61h-1.83s-5.88-1-5.88-1l4.45,3.34,1.42,1.07v7.48h2.03c2.42,0,4.31-1.26,4.31-5.27Z"/>
      <path class="cls-1" d="M7.88,9.69v6.42h1.79c2.71,0,3.77-2.03,3.77-5.18s-1.55-4.64-3.87-4.64h-1.68s-5.88-1-5.88-1l4.45,3.34,1.42,1.07Z"/>
      <polygon class="cls-1" points="45.44 48.23 42.46 63.79 48.58 63.79 45.48 48.23 45.44 48.23"/>
      <path class="cls-1" d="M27.19,47.32c-4.22,0-5.21,4.43-5.21,13.99s.99,14.11,5.21,14.11,5.21-4.22,5.21-14.11-.99-13.99-5.21-13.99Z"/>
      <path class="cls-2" d="M21.91,27.86c0-5.66-2.9-8.42-6.58-9.24v-.1c3.82-1.06,5.42-3.97,5.42-8.03,0-6.05-3.43-9.87-10.93-9.87H.63v37.73h9.92c5.76,0,11.37-1.94,11.37-10.5ZM7.89,6.28h0s1.68,0,1.68,0c2.32,0,3.87,1.45,3.87,4.64s-1.06,5.18-3.77,5.18h-1.79v-6.42l-1.42-1.07-4.45-3.34,5.88,1ZM7.88,32.7v-7.48l-1.42-1.07-4.45-3.34,5.88,1h0s1.83,0,1.83,0c2.85,0,4.5,1.79,4.5,5.61,0,4.01-1.89,5.27-4.31,5.27h-2.03Z"/>
      <path class="cls-1" d="M36.28,5.8c-3.34,0-4.21,3.87-4.21,13.69s.87,13.74,4.16,13.74,4.11-3.53,4.11-13.74-.77-13.69-4.06-13.69Z"/>
      <path class="cls-2" d="M47.99,19.49c0-13.4-3.05-19.49-11.46-19.49s-12.09,6-12.09,19.49,3.1,19.49,11.75,19.49,11.8-5.42,11.8-19.49ZM36.23,33.23c-3.29,0-4.16-3.53-4.16-13.74s.87-13.69,4.21-13.69,4.06,3.87,4.06,13.69-.82,13.74-4.11,13.74Z"/>
      <path class="cls-2" d="M63.13,0c-8.66,0-12.24,6-12.24,19.49s3.39,19.49,11.8,19.49c6.72,0,10.45-3.53,10.45-12.82v-2.27h-6.68v2.27c0,5.61-1.21,7.06-3.48,7.06-3.53,0-4.45-3.87-4.45-13.74s.87-13.74,4.55-13.74c2.47,0,3.39,2.27,3.39,6.87v1.69h6.68v-1.79c0-8.56-3.14-12.53-10.01-12.53Z"/>
      <path class="cls-2" d="M88.29,0c-8.66,0-12.24,6-12.24,19.49s3.39,19.49,11.8,19.49c6.72,0,10.45-3.53,10.45-12.82v-2.27h-6.68v2.27c0,5.61-1.21,7.06-3.48,7.06-3.53,0-4.45-3.87-4.45-13.74s.87-13.74,4.55-13.74c2.47,0,3.39,2.27,3.39,6.87v1.69h6.68v-1.79c0-8.56-3.14-12.53-10.01-12.53Z"/>
      <rect class="cls-2" x="102.17" y=".63" width="7.26" height="37.73"/>
      <polygon class="cls-1" points="125.15 6.87 125.1 6.87 122.54 22.06 127.67 22.06 125.15 6.87"/>
      <path class="cls-2" d="M128.68,28.68l1.64,9.67h7.64L130.03.63h-9.72l-8.18,37.73h7.69l1.13-6.66-.9-.68-4.45-3.34,5.86,1h7.21ZM125.1,6.87h.05l2.52,15.19h-5.13l2.56-15.19Z"/>
      <path class="cls-2" d="M8.61,44.63c-6.37,0-8.61,5.13-8.61,16.68s2.23,16.68,8.57,16.68c4.68,0,7.08-2.85,7.08-10.1v-1.82h-2.81v1.82c0,5.67-1.32,7.49-4.18,7.49-4.47,0-5.63-4.18-5.63-14.07s1.08-14.07,5.55-14.07c2.86,0,4.26,2.03,4.26,7.61v1.45h2.81v-1.53c0-7.28-2.44-10.14-7.04-10.14Z"/>
      <path class="cls-2" d="M27.31,44.63c-6.13,0-8.36,5.13-8.36,16.68,0,12.33,2.11,16.68,8.24,16.68s8.24-4.39,8.24-16.68c0-11.21-1.99-16.68-8.11-16.68ZM27.19,75.42c-4.22,0-5.21-4.22-5.21-14.11s.99-13.99,5.21-13.99,5.21,4.43,5.21,13.99-.99,14.11-5.21,14.11Z"/>
      <path class="cls-2" d="M43.74,45.17l-6.87,32.28h2.98l2.15-11.17h7.03l2.23,11.17h2.94l-6.87-32.28h-3.6ZM42.46,63.79l2.98-15.56h.04l3.1,15.56h-6.12Z"/>
      <path class="cls-2" d="M64.27,44.63c-6.37,0-8.61,5.13-8.61,16.68s2.23,16.68,8.57,16.68c4.68,0,7.08-2.85,7.08-10.1v-1.82h-2.81v1.82c0,5.67-1.32,7.49-4.18,7.49-4.47,0-5.63-4.18-5.63-14.07s1.08-14.07,5.54-14.07c2.86,0,4.26,2.03,4.26,7.61v1.45h2.81v-1.53c0-7.28-2.44-10.14-7.04-10.14Z"/>
      <polygon class="cls-2" points="86.57 59.65 78.34 59.65 78.34 45.17 75.44 45.17 75.44 77.45 78.34 77.45 78.34 62.34 86.57 62.34 86.57 77.45 89.47 77.45 89.47 45.17 86.57 45.17 86.57 59.65"/>
      <rect class="cls-2" x="94.43" y="45.17" width="2.9" height="32.28"/>
      <polygon class="cls-2" points="115.46 71.78 115.37 71.78 106.02 45.17 102.3 45.17 102.3 77.45 105.03 77.45 105.03 50.05 105.11 50.05 114.79 77.45 118.19 77.45 118.19 45.17 115.46 45.17 115.46 71.78"/>
      <path class="cls-2" d="M130.93,44.63c-6.37,0-8.61,5.13-8.61,16.68s2.4,16.68,8.11,16.68c2.07,0,3.97-.91,5.01-3.1l.5,2.57h2.03v-16.35h-8.36v2.73h5.55v4.59c0,4.97-1.32,6.99-4.35,6.99-4.3,0-5.46-4.22-5.46-14.11s1.07-14.07,5.55-14.07c2.85,0,4.26,2.03,4.26,7.61v.62h2.81v-.7c0-7.28-2.44-10.14-7.03-10.14Z"/>
    </g>
  </g>
</svg>